<svg width="1080" height="360" viewBox="0 0 1080 360" fill="none" xmlns="http://www.w3.org/2000/svg">
<rect width="1080" height="360" fill="#F4F4F4"/>
<rect width="173" height="74" transform="translate(453 159)" fill="white" style="mix-blend-mode:multiply"/>
<rect width="48" height="48" transform="translate(515.5 159)" fill="#FA4D56"/>
<rect width="20" height="20" transform="translate(529.5 173)" fill="white" fill-opacity="0.01" style="mix-blend-mode:multiply"/>
<path d="M543.619 185.131L545.856 187.375H541.719L538.988 183L541.719 178.625H545.856L543.619 180.869L544.5 181.75L548.25 178L544.5 174.25L543.619 175.131L545.856 177.375H541.719C541.507 177.376 541.3 177.43 541.115 177.533C540.93 177.635 540.775 177.783 540.663 177.963L538.25 181.819L535.838 177.963C535.725 177.783 535.57 177.635 535.385 177.533C535.2 177.43 534.993 177.376 534.781 177.375H530.75V178.625H534.781L537.512 183L534.781 187.375H530.75V188.625H534.781C534.993 188.624 535.2 188.57 535.385 188.467C535.57 188.365 535.725 188.217 535.838 188.037L538.25 184.181L540.663 188.037C540.775 188.217 540.93 188.365 541.115 188.467C541.3 188.57 541.507 188.624 541.719 188.625H545.856L543.619 190.869L544.5 191.75L548.25 188L544.5 184.25L543.619 185.131Z" fill="white"/>
<text fill="black" xml:space="preserve" style="white-space: pre" font-family="IBM Plex Sans" font-size="14" font-weight="600" letter-spacing="0.16px"><tspan x="460.813" y="229.25">IBM Cloud Logs Routing</tspan></text>
<rect x="48.5" y="96.5" width="287" height="167" stroke="#8D8D8D"/>
<rect x="49" y="97" width="286" height="166" fill="white"/>
<rect x="49" y="97" width="286" height="166" fill="#F4F4F4"/>
<g clip-path="url(#clip0_1427_11474)">
<text fill="black" xml:space="preserve" style="white-space: pre" font-family="IBM Plex Sans" font-size="14" font-weight="600" letter-spacing="0.16px"><tspan x="112" y="116.25">Kubernetes/OpenShift cluster&#10;</tspan></text>
<text fill="black" xml:space="preserve" style="white-space: pre" font-family="IBM Plex Sans" font-size="14" letter-spacing="0.16px"><tspan x="112" y="134.25">Host</tspan></text>
<rect width="48" height="48" transform="translate(48 96)" fill="#8D8D8D"/>
<g clip-path="url(#clip1_1427_11474)">
<rect width="20" height="20" transform="translate(62 110)" fill="white" fill-opacity="0.01" style="mix-blend-mode:multiply"/>
<path d="M74.5 122.5V120.625C74.5 119.962 74.2366 119.326 73.7678 118.857C73.299 118.388 72.6631 118.125 72 118.125C71.337 118.125 70.7011 118.388 70.2323 118.857C69.7634 119.326 69.5 119.962 69.5 120.625V122.5C69.1686 122.5 68.8509 122.632 68.6166 122.867C68.3823 123.101 68.2504 123.419 68.25 123.75V127.5C68.2504 127.831 68.3823 128.149 68.6166 128.383C68.8509 128.618 69.1686 128.75 69.5 128.75H74.5C74.8314 128.75 75.1491 128.618 75.3835 128.383C75.6178 128.149 75.7496 127.831 75.75 127.5V123.75C75.7496 123.419 75.6178 123.101 75.3835 122.867C75.1491 122.632 74.8314 122.5 74.5 122.5ZM70.75 120.625C70.75 120.293 70.8817 119.976 71.1161 119.741C71.3506 119.507 71.6685 119.375 72 119.375C72.3315 119.375 72.6495 119.507 72.8839 119.741C73.1183 119.976 73.25 120.293 73.25 120.625V122.5H70.75V120.625ZM69.5 127.5V123.75H74.5L74.5008 127.5H69.5Z" fill="white"/>
<path d="M78.143 116.322C77.9064 115.094 77.3072 113.965 76.4228 113.082C75.5383 112.198 74.4092 111.599 73.1813 111.363C72.3747 111.208 71.5453 111.212 70.7405 111.377C69.9358 111.542 69.1714 111.864 68.4911 112.325C67.8108 112.785 67.228 113.375 66.7759 114.061C66.3238 114.747 66.0113 115.515 65.8563 116.322C64.7043 116.53 63.6717 117.161 62.9615 118.092C62.2513 119.022 61.9149 120.185 62.0184 121.351C62.1219 122.517 62.6578 123.602 63.5208 124.393C64.3838 125.184 65.5114 125.623 66.682 125.625H67V124.375H66.6846C65.826 124.374 64.9988 124.052 64.3658 123.472C63.7327 122.892 63.3396 122.096 63.2636 121.24C63.1877 120.385 63.4344 119.532 63.9554 118.85C64.4763 118.167 65.2337 117.705 66.0787 117.552L66.9217 117.4L67.0837 116.559C67.3042 115.416 67.9155 114.387 68.8125 113.646C69.7096 112.906 70.8365 112.501 71.9997 112.501C73.1628 112.501 74.2897 112.906 75.1868 113.646C76.0838 114.387 76.6951 115.416 76.9156 116.559L77.0775 117.4L77.9206 117.552C78.7654 117.704 79.5226 118.167 80.0436 118.849C80.5645 119.532 80.8114 120.384 80.7358 121.239C80.6602 122.094 80.2675 122.89 79.635 123.47C79.0024 124.051 78.1757 124.373 77.3173 124.375H77V125.625H77.3173C78.4879 125.623 79.6155 125.184 80.4785 124.393C81.3415 123.602 81.8774 122.517 81.9809 121.351C82.0844 120.185 81.748 119.022 81.0378 118.092C80.3276 117.161 79.295 116.53 78.143 116.322Z" fill="white"/>
</g>
</g>
<rect width="120" height="74" transform="translate(828 159)" fill="white" style="mix-blend-mode:multiply"/>
<rect width="48" height="48" transform="translate(864 159)" fill="#1192E8"/>
<path d="M895.5 183V186.75H880.5V176.75H887.375V175.5H880.5C880.168 175.5 879.851 175.632 879.616 175.866C879.382 176.101 879.25 176.418 879.25 176.75V186.75C879.25 187.082 879.382 187.399 879.616 187.634C879.851 187.868 880.168 188 880.5 188H885.5V190.5H883V191.75H893V190.5H890.5V188H895.5C895.832 188 896.149 187.868 896.384 187.634C896.618 187.399 896.75 187.082 896.75 186.75V183H895.5ZM889.25 190.5H886.75V188H889.25V190.5Z" fill="white"/>
<path d="M896.75 175.5H889.25V176.75H896.75V175.5Z" fill="white"/>
<path d="M896.75 178H889.25V179.25H896.75V178Z" fill="white"/>
<path d="M893 180.5H889.25V181.75H893V180.5Z" fill="white"/>
<text fill="black" xml:space="preserve" style="white-space: pre" font-family="IBM Plex Sans" font-size="14" font-weight="600" letter-spacing="0.16px"><tspan x="831.559" y="229.25">IBM Log Analysis</tspan></text>
<rect width="149" height="92" transform="translate(117 159)" fill="white" style="mix-blend-mode:multiply"/>
<rect width="48" height="48" transform="translate(167.5 159)" fill="#FA4D56"/>
<path d="M195.25 175.5V177.375H187.75V175.5H182.75V180.5H187.75V178.625H192.14C191.727 179.163 191.502 179.822 191.5 180.5V185.5C191.499 185.997 191.302 186.474 190.95 186.825C190.599 187.177 190.122 187.374 189.625 187.375H187.75V185.5H182.75V190.5H187.75V188.625H189.625C190.453 188.624 191.248 188.294 191.834 187.709C192.419 187.123 192.749 186.328 192.75 185.5V180.5C192.75 180.254 192.798 180.01 192.892 179.783C192.986 179.555 193.124 179.349 193.298 179.174C193.472 179 193.679 178.862 193.906 178.768C194.133 178.674 194.377 178.625 194.623 178.625H195.25V180.5H200.25V175.5H195.25ZM186.5 179.25H184V176.75H186.5V179.25ZM186.5 189.25H184V186.75H186.5V189.25ZM199 179.25H196.5V176.75H199V179.25Z" fill="white"/>
<text fill="black" xml:space="preserve" style="white-space: pre" font-family="IBM Plex Sans" font-size="14" font-weight="600" letter-spacing="0.16px"><tspan x="140.115" y="229.25">IBM Cloud Logs </tspan><tspan x="144.685" y="247.25">Routing Agent</tspan></text>
<rect width="301" height="48" transform="translate(215 160)" fill="white" style="mix-blend-mode:multiply"/>
<path d="M215 184L508 184" stroke="black"/>
<path d="M508 180L516 184L508 188L508 180Z" fill="black"/>
<rect width="301" height="48" transform="translate(564 160)" fill="white" style="mix-blend-mode:multiply"/>
<path d="M564 184L857 184" stroke="black"/>
<path d="M857 180L865 184L857 188L857 180Z" fill="black"/>
<rect x="360.5" y="176.5" width="69" height="15" rx="7.5" fill="white"/>
<rect x="360.5" y="176.5" width="69" height="15" rx="7.5" stroke="black"/>
<text fill="black" xml:space="preserve" style="white-space: pre" font-family="IBM Plex Sans" font-size="12" letter-spacing="0.32px"><tspan x="368" y="187.5">Ingestion</tspan></text>
<rect x="683.5" y="176.5" width="62" height="15" rx="7.5" fill="white"/>
<rect x="683.5" y="176.5" width="62" height="15" rx="7.5" stroke="black"/>
<text fill="black" xml:space="preserve" style="white-space: pre" font-family="IBM Plex Sans" font-size="12" letter-spacing="0.32px"><tspan x="691" y="187.5">Delivery</tspan></text>
<defs>
<clipPath id="clip0_1427_11474">
<rect width="288" height="48" fill="white" transform="translate(48 96)"/>
</clipPath>
<clipPath id="clip1_1427_11474">
<rect width="20" height="20" fill="white" transform="translate(62 110)"/>
</clipPath>
</defs>
</svg>
