<svg width="1080" height="540" viewBox="0 0 1080 540" fill="none" xmlns="http://www.w3.org/2000/svg">
<rect width="1080" height="540" fill="#F4F4F4"/>
<rect x="167.5" y="70.5" width="186" height="397" fill="white" style="mix-blend-mode:multiply"/>
<rect x="167.5" y="70.5" width="186" height="397" stroke="#8D8D8D"/>
<rect x="168" y="71" width="185" height="396" fill="white"/>
<g clip-path="url(#clip0_1425_470)">
<text fill="black" xml:space="preserve" style="white-space: pre" font-family="IBM Plex Sans" font-size="14" font-weight="600" letter-spacing="0.16px"><tspan x="219" y="90.25">Tenant A</tspan></text>
<text fill="black" xml:space="preserve" style="white-space: pre" font-family="IBM Plex Sans" font-size="14" letter-spacing="0.16px"><tspan x="219" y="108.25">Account</tspan></text>
<rect width="20" height="20" transform="translate(183 84)" fill="white" style="mix-blend-mode:multiply"/>
<path d="M193 86.5C193.618 86.5 194.222 86.6833 194.736 87.0267C195.25 87.37 195.651 87.8581 195.887 88.4291C196.124 89.0001 196.186 89.6285 196.065 90.2347C195.944 90.8408 195.647 91.3977 195.21 91.8347C194.773 92.2717 194.216 92.5694 193.61 92.69C193.003 92.8105 192.375 92.7486 191.804 92.5121C191.233 92.2756 190.745 91.8751 190.402 91.3612C190.058 90.8473 189.875 90.2431 189.875 89.625C189.875 88.7962 190.204 88.0013 190.79 87.4153C191.376 86.8292 192.171 86.5 193 86.5ZM193 85.25C192.135 85.25 191.289 85.5066 190.569 85.9873C189.85 86.4681 189.289 87.1513 188.958 87.9508C188.627 88.7502 188.54 89.6299 188.709 90.4785C188.878 91.3272 189.295 92.1067 189.906 92.7186C190.518 93.3304 191.298 93.7471 192.146 93.9159C192.995 94.0847 193.875 93.9981 194.674 93.667C195.474 93.3358 196.157 92.7751 196.638 92.0556C197.118 91.3362 197.375 90.4903 197.375 89.625C197.375 88.4647 196.914 87.3519 196.094 86.5314C195.273 85.7109 194.16 85.25 193 85.25Z" fill="black"/>
<path d="M199.25 102.75H198V99.625C198 99.2146 197.919 98.8083 197.762 98.4291C197.605 98.05 197.375 97.7055 197.085 97.4153C196.795 97.1251 196.45 96.8949 196.071 96.7379C195.692 96.5808 195.285 96.5 194.875 96.5H191.125C190.296 96.5 189.501 96.8292 188.915 97.4153C188.329 98.0013 188 98.7962 188 99.625V102.75H186.75V99.625C186.75 98.4647 187.211 97.3519 188.031 96.5314C188.852 95.7109 189.965 95.25 191.125 95.25H194.875C196.035 95.25 197.148 95.7109 197.969 96.5314C198.789 97.3519 199.25 98.4647 199.25 99.625V102.75Z" fill="black"/>
<line x1="169" y1="70" x2="169" y2="118" stroke="#8D8D8D" stroke-width="4"/>
</g>
<rect width="128" height="74" transform="translate(196 197)" fill="white" style="mix-blend-mode:multiply"/>
<rect width="56" height="56" transform="translate(236 189)" fill="white" style="mix-blend-mode:multiply"/>
<path d="M292 189H236V245H292V189Z" fill="white" style="mix-blend-mode:multiply"/>
<path d="M240 193.5H287.5V241" stroke="#1192E8"/>
<path d="M244 189.5H291.5V237" stroke="#1192E8"/>
<rect width="48" height="48" transform="translate(236 197)" fill="#1192E8"/>
<rect width="20" height="20" transform="translate(250 211)" fill="white" style="mix-blend-mode:multiply"/>
<path d="M256.25 214.75L257.134 213.866L259.375 216.108V211H260.625V216.108L262.866 213.866L263.75 214.75L260 218.5L256.25 214.75Z" fill="white"/>
<path d="M263.75 221C263.751 220.507 263.654 220.02 263.465 219.565C263.277 219.109 263 218.696 262.652 218.348L260 221L257.348 218.348C256.912 218.784 256.59 219.321 256.411 219.911C256.232 220.502 256.202 221.127 256.322 221.732C256.442 222.336 256.71 222.902 257.101 223.379C257.492 223.856 257.995 224.228 258.565 224.464C259.135 224.7 259.754 224.792 260.368 224.732C260.981 224.671 261.571 224.461 262.083 224.118C262.596 223.775 263.016 223.312 263.307 222.768C263.598 222.224 263.75 221.617 263.75 221Z" fill="white"/>
<path d="M268.75 221C268.751 219.851 268.524 218.713 268.084 217.652C267.644 216.591 266.998 215.627 266.184 214.816L265.301 215.699C266.35 216.748 267.065 218.084 267.355 219.539C267.645 220.994 267.497 222.503 266.93 223.874C266.362 225.244 265.401 226.416 264.167 227.241C262.934 228.065 261.484 228.505 260 228.505C258.516 228.505 257.066 228.065 255.832 227.241C254.599 226.416 253.638 225.244 253.07 223.874C252.503 222.503 252.355 220.994 252.645 219.539C252.935 218.084 253.65 216.748 254.699 215.699L253.816 214.816C252.798 215.833 252.048 217.086 251.63 218.462C251.212 219.839 251.141 221.298 251.421 222.709C251.702 224.12 252.327 225.44 253.239 226.552C254.152 227.664 255.325 228.534 256.655 229.084C257.984 229.635 259.428 229.849 260.86 229.708C262.292 229.567 263.667 229.075 264.863 228.275C266.059 227.476 267.04 226.393 267.718 225.124C268.396 223.855 268.75 222.439 268.75 221Z" fill="white"/>
<text fill="black" xml:space="preserve" style="white-space: pre" font-family="IBM Plex Sans" font-size="14" font-weight="600" letter-spacing="0.16px"><tspan x="222.306" y="267.25">Logs Target</tspan></text>
<rect x="727.5" y="70.5" width="186" height="399" fill="white" style="mix-blend-mode:multiply"/>
<rect x="727.5" y="70.5" width="186" height="399" stroke="#8D8D8D"/>
<rect x="728" y="71" width="185" height="398" fill="white"/>
<g clip-path="url(#clip1_1425_470)">
<text fill="black" xml:space="preserve" style="white-space: pre" font-family="IBM Plex Sans" font-size="14" font-weight="600" letter-spacing="0.16px"><tspan x="779" y="90.25">Tenant B</tspan></text>
<text fill="black" xml:space="preserve" style="white-space: pre" font-family="IBM Plex Sans" font-size="14" letter-spacing="0.16px"><tspan x="779" y="108.25">Account</tspan></text>
<rect width="20" height="20" transform="translate(743 84)" fill="white" style="mix-blend-mode:multiply"/>
<path d="M753 86.5C753.618 86.5 754.222 86.6833 754.736 87.0267C755.25 87.37 755.651 87.8581 755.887 88.4291C756.124 89.0001 756.186 89.6285 756.065 90.2347C755.944 90.8408 755.647 91.3977 755.21 91.8347C754.773 92.2717 754.216 92.5694 753.61 92.69C753.003 92.8105 752.375 92.7486 751.804 92.5121C751.233 92.2756 750.745 91.8751 750.402 91.3612C750.058 90.8473 749.875 90.2431 749.875 89.625C749.875 88.7962 750.204 88.0013 750.79 87.4153C751.376 86.8292 752.171 86.5 753 86.5ZM753 85.25C752.135 85.25 751.289 85.5066 750.569 85.9873C749.85 86.4681 749.289 87.1513 748.958 87.9508C748.627 88.7502 748.54 89.6299 748.709 90.4785C748.878 91.3272 749.295 92.1067 749.906 92.7186C750.518 93.3304 751.298 93.7471 752.146 93.9159C752.995 94.0847 753.875 93.9981 754.674 93.667C755.474 93.3358 756.157 92.7751 756.638 92.0556C757.118 91.3362 757.375 90.4903 757.375 89.625C757.375 88.4647 756.914 87.3519 756.094 86.5314C755.273 85.7109 754.16 85.25 753 85.25Z" fill="black"/>
<path d="M759.25 102.75H758V99.625C758 99.2146 757.919 98.8083 757.762 98.4291C757.605 98.05 757.375 97.7055 757.085 97.4153C756.795 97.1251 756.45 96.8949 756.071 96.7379C755.692 96.5808 755.285 96.5 754.875 96.5H751.125C750.296 96.5 749.501 96.8292 748.915 97.4153C748.329 98.0013 748 98.7962 748 99.625V102.75H746.75V99.625C746.75 98.4647 747.211 97.3519 748.031 96.5314C748.852 95.7109 749.965 95.25 751.125 95.25H754.875C756.035 95.25 757.148 95.7109 757.969 96.5314C758.789 97.3519 759.25 98.4647 759.25 99.625V102.75Z" fill="black"/>
<line x1="729" y1="70" x2="729" y2="118" stroke="#8D8D8D" stroke-width="4"/>
</g>
<rect x="376.5" y="70.5" width="328" height="398" fill="white" style="mix-blend-mode:multiply"/>
<rect x="376.5" y="70.5" width="328" height="398" stroke="#FA4D56"/>
<rect x="377" y="71" width="327" height="397" fill="white"/>
<rect x="377" y="71" width="327" height="397" fill="#FFF1F1"/>
<g clip-path="url(#clip2_1425_470)">
<text fill="black" xml:space="preserve" style="white-space: pre" font-family="IBM Plex Sans" font-size="14" font-weight="600" letter-spacing="0.16px"><tspan x="428" y="90.25">IBM Cloud Logs Routing Service</tspan></text>
<text fill="black" xml:space="preserve" style="white-space: pre" font-family="IBM Plex Sans" font-size="14" letter-spacing="0.16px"><tspan x="428" y="108.25">Account</tspan></text>
<rect width="20" height="20" transform="translate(392 84)" fill="white" style="mix-blend-mode:multiply"/>
<path d="M406.119 96.1313L408.356 98.375H404.219L401.488 94L404.219 89.625H408.356L406.119 91.8688L407 92.75L410.75 89L407 85.25L406.119 86.1313L408.356 88.375H404.219C404.007 88.3756 403.8 88.4299 403.615 88.5326C403.43 88.6353 403.275 88.7833 403.163 88.9625L400.75 92.8187L398.338 88.9625C398.225 88.7833 398.07 88.6353 397.885 88.5326C397.7 88.4299 397.493 88.3756 397.281 88.375H393.25V89.625H397.281L400.012 94L397.281 98.375H393.25V99.625H397.281C397.493 99.6244 397.7 99.5701 397.885 99.4674C398.07 99.3647 398.225 99.2167 398.338 99.0375L400.75 95.1812L403.163 99.0375C403.275 99.2167 403.43 99.3647 403.615 99.4674C403.8 99.5701 404.007 99.6244 404.219 99.625H408.356L406.119 101.869L407 102.75L410.75 99L407 95.25L406.119 96.1313Z" fill="black"/>
<line x1="378" y1="70" x2="378" y2="118" stroke="#FA4D56" stroke-width="4"/>
</g>
<rect x="392.5" y="133.5" width="296" height="181" stroke="#8D8D8D"/>
<rect x="393" y="134" width="295" height="180" fill="white"/>
<rect x="393" y="134" width="295" height="180" fill="#F4F4F4"/>
<g clip-path="url(#clip3_1425_470)">
<text fill="black" xml:space="preserve" style="white-space: pre" font-family="IBM Plex Sans" font-size="14" font-weight="600" letter-spacing="0.16px"><tspan x="456" y="162.25">VPC</tspan></text>
<rect width="48" height="48" transform="translate(392 133)" fill="#8D8D8D"/>
<g clip-path="url(#clip4_1425_470)">
<rect width="20" height="20" transform="translate(406 147)" fill="white" fill-opacity="0.01" style="mix-blend-mode:multiply"/>
<path d="M418.5 159.5V157.625C418.5 156.962 418.237 156.326 417.768 155.857C417.299 155.388 416.663 155.125 416 155.125C415.337 155.125 414.701 155.388 414.232 155.857C413.763 156.326 413.5 156.962 413.5 157.625V159.5C413.169 159.5 412.851 159.632 412.617 159.867C412.382 160.101 412.25 160.419 412.25 160.75V164.5C412.25 164.831 412.382 165.149 412.617 165.383C412.851 165.618 413.169 165.75 413.5 165.75H418.5C418.831 165.75 419.149 165.618 419.383 165.383C419.618 165.149 419.75 164.831 419.75 164.5V160.75C419.75 160.419 419.618 160.101 419.383 159.867C419.149 159.632 418.831 159.5 418.5 159.5ZM414.75 157.625C414.75 157.293 414.882 156.976 415.116 156.741C415.351 156.507 415.669 156.375 416 156.375C416.332 156.375 416.649 156.507 416.884 156.741C417.118 156.976 417.25 157.293 417.25 157.625V159.5H414.75V157.625ZM413.5 164.5V160.75H418.5L418.501 164.5H413.5Z" fill="white"/>
<path d="M422.143 153.322C421.906 152.094 421.307 150.965 420.423 150.082C419.538 149.198 418.409 148.599 417.181 148.363C416.375 148.208 415.545 148.212 414.741 148.377C413.936 148.542 413.171 148.864 412.491 149.325C411.811 149.785 411.228 150.375 410.776 151.061C410.324 151.747 410.011 152.515 409.856 153.322C408.704 153.53 407.672 154.161 406.961 155.092C406.251 156.022 405.915 157.185 406.018 158.351C406.122 159.517 406.658 160.602 407.521 161.393C408.384 162.184 409.511 162.623 410.682 162.625H411V161.375H410.685C409.826 161.374 408.999 161.052 408.366 160.472C407.733 159.892 407.34 159.096 407.264 158.24C407.188 157.385 407.434 156.532 407.955 155.85C408.476 155.167 409.234 154.705 410.079 154.552L410.922 154.4L411.084 153.559C411.304 152.416 411.915 151.387 412.813 150.646C413.71 149.906 414.836 149.501 416 149.501C417.163 149.501 418.29 149.906 419.187 150.646C420.084 151.387 420.695 152.416 420.916 153.559L421.078 154.4L421.921 154.552C422.765 154.704 423.523 155.167 424.044 155.849C424.564 156.532 424.811 157.384 424.736 158.239C424.66 159.094 424.268 159.89 423.635 160.47C423.002 161.051 422.176 161.373 421.317 161.375H421V162.625H421.317C422.488 162.623 423.616 162.184 424.479 161.393C425.342 160.602 425.877 159.517 425.981 158.351C426.084 157.185 425.748 156.022 425.038 155.092C424.328 154.161 423.295 153.53 422.143 153.322Z" fill="white"/>
</g>
</g>
<rect width="233" height="48" transform="translate(517 248) rotate(180)" fill="white" style="mix-blend-mode:multiply"/>
<path d="M517 224L292 224" stroke="black"/>
<path d="M292 228L284 224L292 220L292 228Z" fill="black"/>
<rect width="128" height="74" transform="translate(753 197)" fill="white" style="mix-blend-mode:multiply"/>
<rect width="56" height="56" transform="translate(793 189)" fill="white" style="mix-blend-mode:multiply"/>
<path d="M849 189H793V245H849V189Z" fill="white" style="mix-blend-mode:multiply"/>
<path d="M797 193.5H844.5V241" stroke="#1192E8"/>
<path d="M801 189.5H848.5V237" stroke="#1192E8"/>
<rect width="48" height="48" transform="translate(793 197)" fill="#1192E8"/>
<rect width="20" height="20" transform="translate(807 211)" fill="white" style="mix-blend-mode:multiply"/>
<path d="M813.25 214.75L814.134 213.866L816.375 216.108V211H817.625V216.108L819.866 213.866L820.75 214.75L817 218.5L813.25 214.75Z" fill="white"/>
<path d="M820.75 221C820.751 220.507 820.654 220.02 820.466 219.565C820.277 219.109 820 218.696 819.652 218.348L817 221L814.348 218.348C813.912 218.784 813.591 219.321 813.412 219.911C813.233 220.502 813.202 221.127 813.322 221.732C813.442 222.336 813.71 222.902 814.101 223.379C814.492 223.856 814.995 224.228 815.565 224.464C816.135 224.7 816.754 224.792 817.368 224.732C817.981 224.671 818.571 224.461 819.083 224.118C819.596 223.775 820.017 223.312 820.307 222.768C820.598 222.224 820.75 221.617 820.75 221Z" fill="white"/>
<path d="M825.75 221C825.751 219.851 825.524 218.713 825.084 217.652C824.644 216.591 823.998 215.627 823.184 214.816L822.301 215.699C823.351 216.748 824.065 218.084 824.355 219.539C824.645 220.994 824.497 222.503 823.93 223.874C823.362 225.244 822.401 226.416 821.168 227.241C819.934 228.065 818.484 228.505 817 228.505C815.516 228.505 814.066 228.065 812.833 227.241C811.599 226.416 810.638 225.244 810.07 223.874C809.503 222.503 809.355 220.994 809.645 219.539C809.935 218.084 810.65 216.748 811.699 215.699L810.816 214.816C809.798 215.833 809.048 217.086 808.63 218.462C808.212 219.839 808.141 221.298 808.421 222.709C808.702 224.12 809.327 225.44 810.239 226.552C811.152 227.664 812.325 228.534 813.655 229.084C814.984 229.635 816.428 229.849 817.86 229.708C819.292 229.567 820.667 229.075 821.863 228.275C823.059 227.476 824.04 226.393 824.718 225.124C825.396 223.855 825.75 222.439 825.75 221Z" fill="white"/>
<text fill="black" xml:space="preserve" style="white-space: pre" font-family="IBM Plex Sans" font-size="14" font-weight="600" letter-spacing="0.16px"><tspan x="779.306" y="267.25">Logs Target</tspan></text>
<rect width="129" height="92" transform="translate(476 200)" fill="white" style="mix-blend-mode:multiply"/>
<rect width="48" height="48" transform="translate(516.5 200)" fill="#FA4D56"/>
<rect width="20" height="20" transform="translate(530.5 214)" fill="white" fill-opacity="0.01" style="mix-blend-mode:multiply"/>
<path d="M536.75 217.75L537.634 216.866L539.875 219.108V214H541.125V219.108L543.366 216.866L544.25 217.75L540.5 221.5L536.75 217.75Z" fill="white"/>
<path d="M544.25 224C544.251 223.507 544.154 223.02 543.966 222.565C543.777 222.109 543.5 221.696 543.152 221.348L540.5 224L537.848 221.348C537.412 221.784 537.091 222.321 536.912 222.911C536.733 223.502 536.702 224.127 536.822 224.732C536.942 225.336 537.21 225.902 537.601 226.379C537.992 226.856 538.495 227.228 539.065 227.464C539.635 227.7 540.254 227.792 540.868 227.732C541.481 227.671 542.071 227.461 542.583 227.118C543.096 226.775 543.517 226.312 543.807 225.768C544.098 225.224 544.25 224.617 544.25 224Z" fill="white"/>
<path d="M549.25 224C549.251 222.851 549.024 221.713 548.584 220.652C548.144 219.591 547.498 218.627 546.684 217.816L545.801 218.699C546.851 219.748 547.565 221.084 547.855 222.539C548.145 223.994 547.997 225.503 547.43 226.874C546.862 228.244 545.901 229.416 544.668 230.241C543.434 231.065 541.984 231.505 540.5 231.505C539.016 231.505 537.566 231.065 536.333 230.241C535.099 229.416 534.138 228.244 533.57 226.874C533.003 225.503 532.855 223.994 533.145 222.539C533.435 221.084 534.15 219.748 535.199 218.699L534.316 217.816C533.298 218.833 532.548 220.086 532.13 221.462C531.712 222.839 531.641 224.298 531.921 225.709C532.202 227.12 532.827 228.44 533.739 229.552C534.652 230.664 535.825 231.534 537.155 232.084C538.484 232.635 539.928 232.849 541.36 232.708C542.792 232.567 544.167 232.075 545.363 231.275C546.559 230.476 547.54 229.393 548.218 228.124C548.896 226.855 549.25 225.439 549.25 224Z" fill="white"/>
<text fill="black" xml:space="preserve" style="white-space: pre" font-family="IBM Plex Sans" font-size="14" font-weight="600" letter-spacing="0.16px"><tspan x="489.115" y="270.25">IBM Cloud Logs </tspan><tspan x="477.036" y="288.25">Routing Data Plane</tspan></text>
<rect x="310.5" y="217.5" width="62" height="15" rx="7.5" fill="white"/>
<rect x="310.5" y="217.5" width="62" height="15" rx="7.5" stroke="black"/>
<text fill="black" xml:space="preserve" style="white-space: pre" font-family="IBM Plex Sans" font-size="12" letter-spacing="0.32px"><tspan x="318" y="228.5">Delivery</tspan></text>
<rect x="183.5" y="300.5" width="153" height="150" stroke="#8D8D8D"/>
<rect x="184" y="301" width="152" height="149" fill="white"/>
<rect x="184" y="301" width="152" height="149" fill="#F4F4F4"/>
<g clip-path="url(#clip5_1425_470)">
<text fill="black" xml:space="preserve" style="white-space: pre" font-family="IBM Plex Sans" font-size="14" font-weight="600" letter-spacing="0.16px"><tspan x="247" y="329.25">VPC</tspan></text>
<rect width="48" height="48" transform="translate(183 300)" fill="#8D8D8D"/>
<g clip-path="url(#clip6_1425_470)">
<rect width="20" height="20" transform="translate(197 314)" fill="white" fill-opacity="0.01" style="mix-blend-mode:multiply"/>
<path d="M209.5 326.5V324.625C209.5 323.962 209.237 323.326 208.768 322.857C208.299 322.388 207.663 322.125 207 322.125C206.337 322.125 205.701 322.388 205.232 322.857C204.763 323.326 204.5 323.962 204.5 324.625V326.5C204.169 326.5 203.851 326.632 203.617 326.867C203.382 327.101 203.25 327.419 203.25 327.75V331.5C203.25 331.831 203.382 332.149 203.617 332.383C203.851 332.618 204.169 332.75 204.5 332.75H209.5C209.831 332.75 210.149 332.618 210.383 332.383C210.618 332.149 210.75 331.831 210.75 331.5V327.75C210.75 327.419 210.618 327.101 210.383 326.867C210.149 326.632 209.831 326.5 209.5 326.5ZM205.75 324.625C205.75 324.293 205.882 323.976 206.116 323.741C206.351 323.507 206.669 323.375 207 323.375C207.332 323.375 207.649 323.507 207.884 323.741C208.118 323.976 208.25 324.293 208.25 324.625V326.5H205.75V324.625ZM204.5 331.5V327.75H209.5L209.501 331.5H204.5Z" fill="white"/>
<path d="M213.143 320.322C212.906 319.094 212.307 317.965 211.423 317.082C210.538 316.198 209.409 315.599 208.181 315.363C207.375 315.208 206.545 315.212 205.741 315.377C204.936 315.542 204.171 315.864 203.491 316.325C202.811 316.785 202.228 317.375 201.776 318.061C201.324 318.747 201.011 319.515 200.856 320.322C199.704 320.53 198.672 321.161 197.961 322.092C197.251 323.022 196.915 324.185 197.018 325.351C197.122 326.517 197.658 327.602 198.521 328.393C199.384 329.184 200.511 329.623 201.682 329.625H202V328.375H201.685C200.826 328.374 199.999 328.052 199.366 327.472C198.733 326.892 198.34 326.096 198.264 325.24C198.188 324.385 198.434 323.532 198.955 322.85C199.476 322.167 200.234 321.705 201.079 321.552L201.922 321.4L202.084 320.559C202.304 319.416 202.915 318.387 203.813 317.646C204.71 316.906 205.836 316.501 207 316.501C208.163 316.501 209.29 316.906 210.187 317.646C211.084 318.387 211.695 319.416 211.916 320.559L212.078 321.4L212.921 321.552C213.765 321.704 214.523 322.167 215.044 322.849C215.564 323.532 215.811 324.384 215.736 325.239C215.66 326.094 215.268 326.89 214.635 327.47C214.002 328.051 213.176 328.373 212.317 328.375H212V329.625H212.317C213.488 329.623 214.616 329.184 215.479 328.393C216.342 327.602 216.877 326.517 216.981 325.351C217.084 324.185 216.748 323.022 216.038 322.092C215.328 321.161 214.295 320.53 213.143 320.322Z" fill="white"/>
</g>
</g>
<rect width="160" height="74" transform="translate(384 366)" fill="white" style="mix-blend-mode:multiply"/>
<rect width="48" height="48" transform="translate(440 366)" fill="#8D8D8D"/>
<rect width="20" height="20" transform="translate(454 380)" fill="white" fill-opacity="0.01" style="mix-blend-mode:multiply"/>
<path d="M466.5 396.875H458.375C458.044 396.874 457.726 396.742 457.492 396.508C457.258 396.274 457.126 395.956 457.125 395.625V387.5H458.375V395.625H466.5V396.875Z" fill="white"/>
<path d="M468.625 393.75L466.125 391.25C466.371 390.879 466.501 390.445 466.5 390C466.498 389.338 466.234 388.703 465.766 388.234C465.297 387.766 464.662 387.502 464 387.5C463.555 387.499 463.121 387.629 462.75 387.875L460.25 385.375V381.25H455.25V386.25H459.375L461.875 388.75C461.629 389.121 461.499 389.555 461.5 390C461.502 390.662 461.766 391.297 462.234 391.766C462.703 392.234 463.338 392.498 464 392.5C464.445 392.501 464.879 392.371 465.25 392.125L467.75 394.625V398.75H472.75V393.75H468.625ZM459 385H456.5V382.5H459V385ZM464 391.25C463.753 391.25 463.511 391.177 463.306 391.039C463.1 390.902 462.94 390.707 462.845 390.478C462.751 390.25 462.726 389.999 462.774 389.756C462.822 389.514 462.941 389.291 463.116 389.116C463.291 388.941 463.514 388.822 463.756 388.774C463.999 388.726 464.25 388.751 464.478 388.845C464.707 388.94 464.902 389.1 465.039 389.306C465.177 389.511 465.25 389.753 465.25 390C465.249 390.331 465.117 390.649 464.883 390.883C464.649 391.117 464.331 391.249 464 391.25ZM471.5 397.5H469V395H471.5V397.5Z" fill="white"/>
<path d="M469.625 392.5H470.875V384.375C470.874 384.044 470.742 383.726 470.508 383.492C470.274 383.258 469.956 383.126 469.625 383.125H461.5V384.375H469.625V392.5Z" fill="white"/>
<text fill="black" xml:space="preserve" style="white-space: pre" font-family="IBM Plex Sans" font-size="14" font-weight="600" letter-spacing="0.16px"><tspan x="450.694" y="436.25">VPE</tspan></text>
<rect width="160" height="74" transform="translate(180 366)" fill="white" style="mix-blend-mode:multiply"/>
<rect width="48" height="48" transform="translate(236 366)" fill="#8D8D8D"/>
<rect width="20" height="20" transform="translate(250 380)" fill="white" fill-opacity="0.01" style="mix-blend-mode:multiply"/>
<path d="M262.5 396.875H254.375C254.044 396.874 253.726 396.742 253.492 396.508C253.258 396.274 253.126 395.956 253.125 395.625V387.5H254.375V395.625H262.5V396.875Z" fill="white"/>
<path d="M264.625 393.75L262.125 391.25C262.371 390.879 262.501 390.445 262.5 390C262.498 389.338 262.234 388.703 261.766 388.234C261.297 387.766 260.662 387.502 260 387.5C259.555 387.499 259.121 387.629 258.75 387.875L256.25 385.375V381.25H251.25V386.25H255.375L257.875 388.75C257.629 389.121 257.499 389.555 257.5 390C257.502 390.662 257.766 391.297 258.234 391.766C258.703 392.234 259.338 392.498 260 392.5C260.445 392.501 260.879 392.371 261.25 392.125L263.75 394.625V398.75H268.75V393.75H264.625ZM255 385H252.5V382.5H255V385ZM260 391.25C259.753 391.25 259.511 391.177 259.306 391.039C259.1 390.902 258.94 390.707 258.845 390.478C258.751 390.25 258.726 389.999 258.774 389.756C258.822 389.514 258.941 389.291 259.116 389.116C259.291 388.941 259.514 388.822 259.756 388.774C259.999 388.726 260.25 388.751 260.478 388.845C260.707 388.94 260.902 389.1 261.039 389.306C261.177 389.511 261.25 389.753 261.25 390C261.249 390.331 261.117 390.649 260.883 390.883C260.649 391.117 260.331 391.249 260 391.25ZM267.5 397.5H265V395H267.5V397.5Z" fill="white"/>
<path d="M265.625 392.5H266.875V384.375C266.874 384.044 266.742 383.726 266.508 383.492C266.274 383.258 265.956 383.126 265.625 383.125H257.5V384.375H265.625V392.5Z" fill="white"/>
<text fill="black" xml:space="preserve" style="white-space: pre" font-family="IBM Plex Sans" font-size="14" font-weight="600" letter-spacing="0.16px"><tspan x="231.976" y="436.25">VPE-GW</tspan></text>
<rect width="160" height="74" transform="translate(737 366)" fill="white" style="mix-blend-mode:multiply"/>
<rect width="48" height="48" transform="translate(793 366)" fill="#8D8D8D"/>
<rect width="20" height="20" transform="translate(807 380)" fill="white" fill-opacity="0.01" style="mix-blend-mode:multiply"/>
<path d="M819.5 396.875H811.375C811.044 396.874 810.726 396.742 810.492 396.508C810.258 396.274 810.126 395.956 810.125 395.625V387.5H811.375V395.625H819.5V396.875Z" fill="white"/>
<path d="M821.625 393.75L819.125 391.25C819.371 390.879 819.501 390.445 819.5 390C819.498 389.338 819.234 388.703 818.766 388.234C818.297 387.766 817.662 387.502 817 387.5C816.555 387.499 816.121 387.629 815.75 387.875L813.25 385.375V381.25H808.25V386.25H812.375L814.875 388.75C814.629 389.121 814.499 389.555 814.5 390C814.502 390.662 814.766 391.297 815.234 391.766C815.703 392.234 816.338 392.498 817 392.5C817.445 392.501 817.879 392.371 818.25 392.125L820.75 394.625V398.75H825.75V393.75H821.625ZM812 385H809.5V382.5H812V385ZM817 391.25C816.753 391.25 816.511 391.177 816.306 391.039C816.1 390.902 815.94 390.707 815.845 390.478C815.751 390.25 815.726 389.999 815.774 389.756C815.822 389.514 815.941 389.291 816.116 389.116C816.291 388.941 816.514 388.822 816.756 388.774C816.999 388.726 817.25 388.751 817.478 388.845C817.707 388.94 817.902 389.1 818.039 389.306C818.177 389.511 818.25 389.753 818.25 390C818.249 390.331 818.117 390.649 817.883 390.883C817.649 391.117 817.331 391.249 817 391.25ZM824.5 397.5H822V395H824.5V397.5Z" fill="white"/>
<path d="M822.625 392.5H823.875V384.375C823.874 384.044 823.742 383.726 823.508 383.492C823.274 383.258 822.956 383.126 822.625 383.125H814.5V384.375H822.625V392.5Z" fill="white"/>
<text fill="black" xml:space="preserve" style="white-space: pre" font-family="IBM Plex Sans" font-size="14" font-weight="600" letter-spacing="0.16px"><tspan x="785.22" y="436.25">Workload</tspan></text>
<rect width="150" height="48" transform="translate(284 367)" fill="white" style="mix-blend-mode:multiply"/>
<path d="M284 391H426" stroke="black"/>
<path d="M426 387L434 391L426 395L426 387Z" fill="black"/>
<rect width="151" height="48" transform="translate(793 415) rotate(180)" fill="white" style="mix-blend-mode:multiply"/>
<path d="M793 391L650 391" stroke="black"/>
<path d="M650 395L642 391L650 387L650 395Z" fill="black"/>
<rect width="32" height="48" transform="matrix(-4.37114e-08 -1 -1 2.177e-08 558 332)" fill="white" style="mix-blend-mode:multiply"/>
<path d="M534 332L534 308" stroke="black"/>
<path d="M538 308L534 300L530 308L538 308Z" fill="black"/>
<rect width="32" height="48" transform="matrix(-4.37114e-08 -1 -1 2.177e-08 572 332)" fill="white" style="mix-blend-mode:multiply"/>
<path d="M548 332L548 308" stroke="black"/>
<path d="M552 308L548 300L544 308L552 308Z" fill="black"/>
<rect x="307.5" y="384.5" width="69" height="15" rx="7.5" fill="white"/>
<rect x="307.5" y="384.5" width="69" height="15" rx="7.5" stroke="black"/>
<text fill="black" xml:space="preserve" style="white-space: pre" font-family="IBM Plex Sans" font-size="12" letter-spacing="0.32px"><tspan x="315" y="395.5">Ingestion</tspan></text>
<rect x="704.5" y="384.5" width="69" height="15" rx="7.5" fill="white"/>
<rect x="704.5" y="384.5" width="69" height="15" rx="7.5" stroke="black"/>
<text fill="black" xml:space="preserve" style="white-space: pre" font-family="IBM Plex Sans" font-size="12" letter-spacing="0.32px"><tspan x="712" y="395.5">Ingestion</tspan></text>
<rect width="160" height="74" transform="translate(538 367)" fill="white" style="mix-blend-mode:multiply"/>
<rect width="48" height="48" transform="translate(594 367)" fill="#8D8D8D"/>
<g clip-path="url(#clip7_1425_470)">
<rect width="20" height="20" transform="translate(608 381)" fill="white" fill-opacity="0.01" style="mix-blend-mode:multiply"/>
<path d="M624.139 387.328C623.866 385.899 623.104 384.611 621.983 383.684C620.863 382.757 619.454 382.25 618 382.25C616.546 382.25 615.137 382.757 614.017 383.684C612.896 384.611 612.134 385.899 611.861 387.328C610.708 387.534 609.674 388.164 608.963 389.094C608.252 390.025 607.915 391.188 608.018 392.355C608.122 393.521 608.659 394.607 609.523 395.397C610.387 396.188 611.516 396.626 612.687 396.625H613V395.375H612.687C611.796 395.376 610.94 395.03 610.299 394.411C609.658 393.792 609.283 392.948 609.252 392.058C609.222 391.167 609.538 390.3 610.135 389.638C610.732 388.977 611.563 388.573 612.452 388.513L612.975 388.477L613.031 387.956C613.165 386.732 613.746 385.6 614.663 384.777C615.58 383.955 616.768 383.5 618 383.5C619.232 383.5 620.42 383.955 621.337 384.777C622.254 385.6 622.836 386.732 622.969 387.956L623.025 388.477L623.548 388.513C624.437 388.573 625.268 388.977 625.865 389.639C626.462 390.3 626.778 391.168 626.748 392.058C626.717 392.949 626.342 393.792 625.701 394.411C625.06 395.03 624.204 395.376 623.312 395.375H623V396.625H623.312C624.484 396.626 625.613 396.188 626.477 395.397C627.341 394.607 627.878 393.521 627.982 392.355C628.085 391.188 627.748 390.025 627.037 389.094C626.326 388.164 625.292 387.534 624.139 387.328Z" fill="white"/>
<path d="M622.375 394.75V393.5H621.062C620.981 393.109 620.826 392.737 620.604 392.405L621.536 391.473L620.652 390.59L619.721 391.521C619.388 391.299 619.016 391.144 618.625 391.063V389.75H617.375V391.063C616.984 391.144 616.612 391.299 616.279 391.521L615.348 390.59L614.464 391.473L615.396 392.405C615.174 392.737 615.019 393.109 614.938 393.5H613.625V394.75H614.938C615.019 395.141 615.174 395.513 615.396 395.846L614.464 396.777L615.348 397.661L616.279 396.729C616.612 396.951 616.984 397.106 617.375 397.187V398.5H618.625V397.187C619.016 397.106 619.388 396.951 619.721 396.73L620.652 397.661L621.536 396.777L620.604 395.846C620.826 395.513 620.981 395.141 621.062 394.75H622.375ZM618 396C617.629 396 617.267 395.89 616.958 395.684C616.65 395.478 616.41 395.185 616.268 394.843C616.126 394.5 616.089 394.123 616.161 393.759C616.233 393.396 616.412 393.062 616.674 392.799C616.936 392.537 617.27 392.359 617.634 392.286C617.998 392.214 618.375 392.251 618.718 392.393C619.06 392.535 619.353 392.775 619.559 393.083C619.765 393.392 619.875 393.754 619.875 394.125C619.874 394.622 619.677 395.099 619.325 395.45C618.974 395.802 618.497 396 618 396Z" fill="white"/>
</g>
<text fill="black" xml:space="preserve" style="white-space: pre" font-family="IBM Plex Sans" font-size="14" font-weight="600" letter-spacing="0.16px"><tspan x="604.872" y="437.25">CSE</tspan></text>
<path d="M548 329L548 383C548 387.418 551.582 391 556 391L595 391" stroke="black"/>
<path d="M534 329L534 383C534 387.418 530.418 391 526 391L487 391" stroke="black"/>
<rect width="228" height="48" transform="translate(565 200)" fill="white" style="mix-blend-mode:multiply"/>
<path d="M565 224L785 224" stroke="black"/>
<path d="M785 220L793 224L785 228L785 220Z" fill="black"/>
<rect x="705.5" y="217.5" width="62" height="15" rx="7.5" fill="white"/>
<rect x="705.5" y="217.5" width="62" height="15" rx="7.5" stroke="black"/>
<text fill="black" xml:space="preserve" style="white-space: pre" font-family="IBM Plex Sans" font-size="12" letter-spacing="0.32px"><tspan x="713" y="228.5">Delivery</tspan></text>
<defs>
<clipPath id="clip0_1425_470">
<rect width="187" height="48" fill="white" transform="translate(167 70)"/>
</clipPath>
<clipPath id="clip1_1425_470">
<rect width="187" height="48" fill="white" transform="translate(727 70)"/>
</clipPath>
<clipPath id="clip2_1425_470">
<rect width="329" height="48" fill="white" transform="translate(376 70)"/>
</clipPath>
<clipPath id="clip3_1425_470">
<rect width="297" height="48" fill="white" transform="translate(392 133)"/>
</clipPath>
<clipPath id="clip4_1425_470">
<rect width="20" height="20" fill="white" transform="translate(406 147)"/>
</clipPath>
<clipPath id="clip5_1425_470">
<rect width="154" height="48" fill="white" transform="translate(183 300)"/>
</clipPath>
<clipPath id="clip6_1425_470">
<rect width="20" height="20" fill="white" transform="translate(197 314)"/>
</clipPath>
<clipPath id="clip7_1425_470">
<rect width="20" height="20" fill="white" transform="translate(608 381)"/>
</clipPath>
</defs>
</svg>
